<svg width="64" height="64" viewBox="0 0 64 64" fill="none" xmlns="http://www.w3.org/2000/svg">
<g id="logo">
<circle id="background color" cx="32" cy="32" r="32" fill="#FCF6EE"/>
<g id="logo_2">
<path id="Vector" d="M27.7522 32.7848L28.1766 50H48V44.1742L36.7866 43.8381L36.9201 28.5436H27.7522V32.7848Z" fill="#C60F3E"/>
<path id="Vector_2" d="M16 43.0767L16.5253 15.0284C16.5253 15.0284 18.0262 14.1439 22.0786 14.0175C26.131 13.8912 34.6096 14.4598 36.2605 15.3443C37.9115 16.2287 40.0835 18.1872 40.3115 20.0194C40.5395 21.8515 39.1858 25.1355 39.1858 25.1355C39.1858 25.1355 36.6372 27.4099 34.9097 27.6626C33.1823 27.9153 32.2081 27.9785 32.2081 27.9785L41.3621 43.0767H32.7334L24.4786 28.534L23.8782 43.0767H16Z" fill="#C60F3E"/>
<path id="Vector_3" d="M24.616 18.0919V25.1165C24.616 25.1165 32.1558 24.3774 33.3947 23.0221C34.6337 21.6667 35.3034 18.9549 24.616 18.0919Z" fill="#FCF6EE"/>
</g>
</g>
</svg>
